<svg width="54" height="40" viewBox="0 0 54 40" fill="none" xmlns="http://www.w3.org/2000/svg">
<g clip-path="url(#clip0_103_5350)">
<path d="M12.733 1.06673C16.2886 1.06673 19.2663 1.51117 21.6663 2.40006C24.0663 3.28895 25.2663 4.48895 25.2663 6.00006V34.8001C25.2663 36.3112 24.0663 37.5112 21.6663 38.4001C19.2663 39.289 16.3108 39.7334 12.7997 39.7334C9.28856 39.7334 6.35523 39.3112 3.99967 38.4667C1.64412 37.6223 0.421897 36.489 0.333008 35.0667V6.00006C0.333008 4.48895 1.53301 3.28895 3.93301 2.40006C6.33301 1.51117 9.26634 1.06673 12.733 1.06673ZM40.9997 18.2667H41.3997C44.7775 18.3556 47.6219 18.8445 49.933 19.7334C52.2441 20.6223 53.3997 21.7778 53.3997 23.2001V34.8001C53.3997 36.3112 52.2441 37.5112 49.933 38.4001C47.6219 39.289 44.7775 39.7334 41.3997 39.7334H40.9997C37.533 39.7334 34.5997 39.3112 32.1997 38.4667C29.7997 37.6223 28.5552 36.489 28.4663 35.0667V23.2001C28.4663 21.7778 29.6663 20.6001 32.0663 19.6667C34.4663 18.7334 37.4441 18.2667 40.9997 18.2667ZM12.733 34.1334C10.5997 34.1334 8.64412 33.9778 6.86634 33.6667C5.08856 33.3556 3.6219 32.8445 2.46634 32.1334V34.8001C2.46634 35.0667 2.68856 35.3556 3.13301 35.6667C3.57745 35.9778 4.24412 36.2667 5.13301 36.5334C7.17745 37.2445 9.71079 37.6001 12.733 37.6001C15.7552 37.6001 18.333 37.2445 20.4663 36.5334C21.2663 36.2667 21.8886 35.9778 22.333 35.6667C22.7775 35.3556 23.0441 35.1112 23.133 34.9334V32.1334C21.9775 32.8445 20.5108 33.3556 18.733 33.6667C16.9552 33.9778 14.9552 34.1334 12.733 34.1334ZM40.9997 34.0001C38.7775 34.0001 36.7775 33.8223 34.9997 33.4667C33.2219 33.1112 31.7552 32.6223 30.5997 32.0001V34.8001C30.5997 35.0667 30.8441 35.3556 31.333 35.6667C31.8219 35.9778 32.4663 36.2667 33.2663 36.5334C35.3108 37.2445 37.8663 37.6001 40.933 37.6001C43.9997 37.6001 46.5552 37.2445 48.5997 36.5334C49.3997 36.2667 50.0219 35.9778 50.4663 35.6667C50.9108 35.3556 51.1775 35.1112 51.2663 34.9334V32.0001C50.1108 32.6223 48.6441 33.1112 46.8663 33.4667C45.0886 33.8223 43.133 34.0001 40.9997 34.0001ZM12.733 28.4001C10.5997 28.4001 8.64412 28.2223 6.86634 27.8667C5.08856 27.5112 3.6219 27.0223 2.46634 26.4001V29.2001C2.46634 29.4667 2.68856 29.7556 3.13301 30.0667C3.57745 30.3778 4.24412 30.6667 5.13301 30.9334C7.17745 31.6445 9.71079 32.0001 12.733 32.0001C15.7552 32.0001 18.333 31.6445 20.4663 30.9334C21.2663 30.6667 21.8886 30.3778 22.333 30.0667C22.7775 29.7556 23.0441 29.5112 23.133 29.3334V26.4001C21.9775 27.0223 20.5108 27.5112 18.733 27.8667C16.9552 28.2223 14.9552 28.4001 12.733 28.4001ZM51.2663 26.1334C50.1108 26.7556 48.6441 27.2445 46.8663 27.6001C45.0886 27.9556 43.1108 28.1334 40.933 28.1334C38.7552 28.1334 36.7775 27.9556 34.9997 27.6001C33.2219 27.2445 31.7552 26.7556 30.5997 26.1334V29.0667C30.5997 29.2445 30.8441 29.489 31.333 29.8001C31.8219 30.1112 32.4663 30.4001 33.2663 30.6667C35.3108 31.4667 37.8663 31.8667 40.933 31.8667C43.9997 31.8667 46.5552 31.4667 48.5997 30.6667C49.3997 30.489 50.0219 30.2445 50.4663 29.9334C50.9108 29.6223 51.1775 29.3334 51.2663 29.0667V26.1334ZM13.133 22.5334H12.733C10.5997 22.5334 8.64412 22.3556 6.86634 22.0001C5.08856 21.6445 3.6219 21.1556 2.46634 20.5334V23.4667C2.46634 23.6445 2.68856 23.889 3.13301 24.2001C3.57745 24.5112 4.24412 24.8001 5.13301 25.0667C7.17745 25.7778 9.73301 26.1334 12.7997 26.1334C15.8663 26.1334 18.4219 25.7778 20.4663 25.0667C21.2663 24.889 21.8886 24.6445 22.333 24.3334C22.7775 24.0223 23.0441 23.7334 23.133 23.4667V20.5334C20.8219 21.8667 17.4886 22.5334 13.133 22.5334ZM40.9997 20.5334C37.9775 20.5334 35.3997 20.889 33.2663 21.6001C32.4663 21.8667 31.8219 22.1556 31.333 22.4667C30.8441 22.7778 30.5997 23.0445 30.5997 23.2667C30.5997 23.489 30.8441 23.7556 31.333 24.0667C31.8219 24.3778 32.4663 24.6667 33.2663 24.9334C35.3108 25.6445 37.8663 26.0001 40.933 26.0001C43.9997 26.0001 46.5552 25.6445 48.5997 24.9334C49.4886 24.6667 50.1552 24.3778 50.5997 24.0667C51.0441 23.7556 51.2663 23.489 51.2663 23.2667C51.2663 23.0445 51.0441 22.7778 50.5997 22.4667C50.1552 22.1556 49.4886 21.8667 48.5997 21.6001C46.5552 20.889 44.0219 20.5334 40.9997 20.5334ZM12.733 16.8001C10.5997 16.8001 8.64412 16.6223 6.86634 16.2667C5.08856 15.9112 3.6219 15.4223 2.46634 14.8001V17.6001C2.46634 17.8667 2.68856 18.1556 3.13301 18.4667C3.57745 18.7778 4.24412 19.0667 5.13301 19.3334C7.17745 20.0445 9.73301 20.4001 12.7997 20.4001C15.8663 20.4001 18.4219 20.0445 20.4663 19.3334C21.2663 19.0667 21.8886 18.7778 22.333 18.4667C22.7775 18.1556 23.0441 17.9112 23.133 17.7334V14.8001C21.9775 15.4223 20.5108 15.9112 18.733 16.2667C16.9552 16.6223 14.9552 16.8001 12.733 16.8001ZM23.133 8.9334C21.9775 9.55562 20.5108 10.0445 18.733 10.4001C16.9552 10.7556 14.9775 10.9334 12.7997 10.9334C10.6219 10.9334 8.64412 10.7556 6.86634 10.4001C5.08856 10.0445 3.6219 9.55562 2.46634 8.9334V11.8667C2.46634 12.0445 2.68856 12.289 3.13301 12.6001C3.57745 12.9112 4.24412 13.2001 5.13301 13.4667C7.17745 14.1778 9.73301 14.5334 12.7997 14.5334C15.8663 14.5334 18.4219 14.1778 20.4663 13.4667C21.2663 13.2001 21.8886 12.9334 22.333 12.6667C22.7775 12.4001 23.0441 12.1334 23.133 11.8667V8.9334ZM12.733 3.20006C9.71079 3.20006 7.17745 3.55562 5.13301 4.26673C4.24412 4.5334 3.57745 4.82228 3.13301 5.1334C2.68856 5.44451 2.46634 5.71117 2.46634 5.9334C2.46634 6.15562 2.68856 6.44451 3.13301 6.80006C3.57745 7.15562 4.24412 7.46673 5.13301 7.7334C7.17745 8.44451 9.73301 8.80006 12.7997 8.80006C15.8663 8.80006 18.4219 8.44451 20.4663 7.7334C21.2663 7.46673 21.9108 7.15562 22.3997 6.80006C22.8886 6.44451 23.133 6.17784 23.133 6.00006C23.133 5.82228 22.8886 5.55562 22.3997 5.20006C21.9108 4.84451 21.2663 4.5334 20.4663 4.26673C18.4219 3.55562 15.8441 3.20006 12.733 3.20006Z" fill="#80AA27"/>
</g>
<defs>
<clipPath id="clip0_103_5350">
<rect width="53.34" height="40" fill="white" transform="matrix(1 0 0 -1 0.330078 40)"/>
</clipPath>
</defs>
</svg>
