<svg width="44" height="40" viewBox="0 0 44 40" fill="none" xmlns="http://www.w3.org/2000/svg">
<g clip-path="url(#clip0_103_5323)">
<path d="M1.33301 20.2669C4.17745 19.9113 6.91079 20.2891 9.53301 21.4002C12.1552 22.5113 14.3552 24.178 16.133 26.4002C17.9108 28.6224 19.0663 31.1558 19.5997 34.0002C19.7775 35.5113 19.7775 37.0669 19.5997 38.6669L19.4663 39.4669L18.7997 39.6002C15.8663 39.9558 13.0886 39.578 10.4663 38.4669C7.84412 37.3558 5.64412 35.6891 3.86634 33.4669C2.08856 31.2446 0.977452 28.7113 0.533008 25.8669C0.266341 24.2669 0.266341 22.6669 0.533008 21.0669V20.4002L1.33301 20.2669ZM39.9997 7.06686L40.2663 7.73353C41.1552 9.68909 41.733 11.7335 41.9997 13.8669C42.533 17.6891 42.0886 21.378 40.6663 24.9335C39.2441 28.4891 37.0663 31.4669 34.133 33.8669C31.1997 36.2669 27.8219 37.8224 23.9997 38.5335L23.1997 38.6669L22.933 37.8669C22.0441 35.9113 21.4663 33.8669 21.1997 31.7335C20.6663 27.9113 21.1108 24.2446 22.533 20.7335C23.9552 17.2224 26.133 14.2446 29.0663 11.8002C31.9997 9.35575 35.3775 7.82242 39.1997 7.2002L39.9997 7.06686ZM17.5997 34.2669C17.1552 31.8669 16.2219 29.7335 14.7997 27.8669C13.3775 26.0002 11.5997 24.5558 9.46634 23.5335C7.33301 22.5113 5.06634 22.0446 2.66634 22.1335H2.39967V22.4002C2.31079 23.2891 2.31079 24.178 2.39967 25.0669L2.53301 25.6002C2.88856 28.0002 3.79967 30.1335 5.26634 32.0002C6.73301 33.8669 8.53301 35.3113 10.6663 36.3335C12.7997 37.3558 15.0663 37.8224 17.4663 37.7335L17.733 37.6002V37.4669C17.8219 36.578 17.7775 35.6891 17.5997 34.8002V34.2669ZM38.7997 9.2002L38.3997 9.33353C35.1997 10.1335 32.333 11.6224 29.7997 13.8002C27.2663 15.978 25.4219 18.6224 24.2663 21.7335C23.1108 24.8446 22.7552 28.0891 23.1997 31.4669C23.3775 33.0669 23.733 34.578 24.2663 36.0002L24.3997 36.4002L24.7997 36.2669C27.9997 35.5558 30.8441 34.1113 33.333 31.9335C35.8219 29.7558 37.6663 27.1335 38.8663 24.0669C40.0663 21.0002 40.4886 17.8224 40.133 14.5335L39.9997 14.1335C39.8219 12.5335 39.4663 11.0224 38.933 9.6002L38.7997 9.2002ZM10.933 0.533531L11.5997 0.666862C13.3775 1.2002 14.8886 2.11131 16.133 3.4002C17.3775 4.68909 18.2441 6.22242 18.733 8.0002C19.2219 9.77798 19.2441 11.5558 18.7997 13.3335C18.533 14.3113 18.133 15.2002 17.5997 16.0002L17.1997 16.6669L16.3997 16.5335C14.7108 16.0002 13.2441 15.0891 11.9997 13.8002C10.7552 12.5113 9.88856 11.0002 9.39968 9.26686C8.91079 7.53353 8.88856 5.73353 9.33301 3.86686C9.59968 2.88909 9.99967 2.0002 10.533 1.2002L10.933 0.533531ZM11.8663 2.93353L11.5997 3.2002C11.2441 4.26686 11.0663 5.35575 11.0663 6.46687C11.0663 7.57798 11.2663 8.66686 11.6663 9.73353C12.0663 10.8002 12.6663 11.7335 13.4663 12.5335C14.2663 13.3335 15.1997 13.9113 16.2663 14.2669L16.7997 12.8002C17.333 10.7558 17.133 8.8002 16.1997 6.93353C15.2663 5.06686 13.8219 3.73353 11.8663 2.93353Z" fill="#80AA27"/>
</g>
<defs>
<clipPath id="clip0_103_5323">
<rect width="43.34" height="40" fill="white" transform="matrix(1 0 0 -1 0.330078 40)"/>
</clipPath>
</defs>
</svg>
