<svg width="42" height="40" viewBox="0 0 42 40" fill="none" xmlns="http://www.w3.org/2000/svg">
<g clip-path="url(#clip0_103_5337)">
<path d="M20.1333 0.533592C20.4 0.266926 20.7111 0.133591 21.0667 0.133591C21.4222 0.133591 21.7333 0.266926 22 0.533592L26.6667 5.60026L30.1333 1.73359C30.3111 1.55581 30.5778 1.4447 30.9333 1.40026C31.2889 1.35582 31.6 1.46693 31.8667 1.73359L35.4667 5.73359L39.8667 0.93359C40.2222 0.489147 40.6444 0.355812 41.1333 0.533592C41.6222 0.711369 41.9111 1.02248 42 1.46693V36.6669L41.4667 36.9336C40.6667 37.2891 39.2 37.6447 37.0667 38.0003H36.6667C32.5778 38.6225 27.3778 38.9336 21.0667 38.9336H20.5333C14.2222 38.9336 9.06667 38.6225 5.06667 38.0003L4.66667 37.8669C2.97778 37.6003 1.68889 37.2891 0.8 36.9336L0 36.6669V1.73359C0 1.20026 0.288889 0.822479 0.866667 0.600258C1.44444 0.378036 1.91111 0.489147 2.26667 0.93359L6.66667 5.73359L10.1333 1.73359C10.4 1.55581 10.7111 1.4447 11.0667 1.40026C11.4222 1.35582 11.7333 1.46693 12 1.73359L15.4667 5.60026L20.1333 0.533592ZM21.0667 2.40026L12.1333 12.1336C11.8667 12.4891 11.5111 12.6669 11.0667 12.6669C10.6222 12.6669 10.2667 12.4891 10 12.1336L2 3.33359V35.3336L2.53333 35.4669C3.33333 35.7336 4.26667 35.9558 5.33333 36.1336C8.97778 36.6669 13.6 36.978 19.2 37.0669H21.7333C27.8667 37.0669 32.8889 36.7558 36.8 36.1336C38.0444 35.8669 39.0667 35.6447 39.8667 35.4669L40.1333 35.3336V3.33359L32.1333 12.1336C31.8667 12.4891 31.5333 12.6669 31.1333 12.6669C30.7333 12.6669 30.4 12.5336 30.1333 12.2669L21.0667 2.40026ZM20 17.7336C20.2667 17.378 20.6222 17.2003 21.0667 17.2003C21.5111 17.2003 21.8667 17.378 22.1333 17.7336L24.9333 20.9336C25.2 21.2003 25.3333 21.5336 25.3333 21.9336C25.3333 22.3336 25.2 22.6669 24.9333 22.9336L22.1333 26.1336C21.8667 26.4891 21.5111 26.6669 21.0667 26.6669C20.6222 26.6669 20.2667 26.4891 20 26.1336L17.2 22.9336C16.9333 22.6669 16.8 22.3336 16.8 21.9336C16.8 21.5336 16.9333 21.2003 17.2 20.9336L20 17.7336ZM21.0667 19.3336L18.8 21.8669L21.0667 24.5336L23.3333 21.8669L21.0667 19.3336ZM31.0667 3.60026L27.8667 7.06693L31.0667 10.5336L34.2667 7.06693L31.0667 3.60026ZM11.0667 3.60026L7.86667 7.06693L11.0667 10.5336L14.2667 7.06693L11.0667 3.60026Z" fill="#80AA27"/>
</g>
<defs>
<clipPath id="clip0_103_5337">
<rect width="42" height="40" fill="white" transform="matrix(1 0 0 -1 0 40)"/>
</clipPath>
</defs>
</svg>
