<svg width="134" height="97" viewBox="0 0 134 97" fill="none" xmlns="http://www.w3.org/2000/svg">
<path d="M101.552 87.8463L7.52791 94.9712C6.75085 95.0549 5.96498 94.9555 5.23349 94.681C4.50201 94.4065 3.84537 93.9646 3.31648 93.3908C2.7876 92.817 2.40125 92.1275 2.1885 91.3776C1.97575 90.6278 1.94256 89.8386 2.09162 89.0736L11.4599 32.262C11.7174 30.5871 12.5313 29.0468 13.7711 27.8879C15.011 26.729 16.605 26.0184 18.298 25.8701L111.279 16.035C112.194 15.9365 113.119 16.0466 113.985 16.357C114.851 16.6674 115.634 17.17 116.276 17.8268C116.919 18.4836 117.403 19.2774 117.692 20.1482C117.981 21.0189 118.068 21.9439 117.946 22.8531L108.818 81.3862C108.392 83.0635 107.473 84.5753 106.178 85.7267C104.883 86.8782 103.272 87.6164 101.552 87.8463Z" stroke="#616161" stroke-width="2.6" stroke-linecap="round" stroke-linejoin="round"/>
<path d="M14.0059 27.3534L54.8807 53.6541C55.9747 54.3797 57.2594 54.7668 58.5733 54.7668C59.8872 54.7668 61.1719 54.3797 62.2659 53.6541L115.552 17.2627" stroke="#616161" stroke-width="2.6" stroke-linecap="round" stroke-linejoin="round"/>
<circle cx="116" cy="18" r="18" fill="#80AA27"/>
<path d="M116.111 24.1044L116.111 24.1044L116.108 24.1079C115.854 24.465 115.531 24.7678 115.158 24.9985L115.421 25.4236L115.158 24.9985C114.785 25.2292 114.37 25.3832 113.937 25.4515C113.504 25.5198 113.062 25.5011 112.636 25.3963C112.211 25.2916 111.81 25.103 111.458 24.8416L111.458 24.8416L111.455 24.839C110.923 24.4512 110.518 23.9145 110.291 23.2968C110.065 22.6791 110.026 22.008 110.18 21.3683C110.335 20.7286 110.675 20.1491 111.159 19.7029C111.643 19.2566 112.248 18.9637 112.898 18.8612C113.548 18.7586 114.214 18.851 114.811 19.1267C115.409 19.4024 115.911 19.849 116.255 20.41C116.599 20.9711 116.768 21.6215 116.743 22.279C116.717 22.9366 116.497 23.5718 116.111 24.1044Z" fill="white" stroke="#616161"/>
<path d="M123.779 17.2155L123.766 17.2334L123.754 17.2524C123.094 18.3122 122.615 19.4743 122.336 20.6911L122.33 20.7174L122.326 20.7442C122.295 21.0103 122.266 21.279 122.237 21.5506C122.166 22.2185 122.092 22.9032 121.973 23.6058L121.971 23.6157L121.97 23.6257C121.919 24.0244 121.764 24.4029 121.522 24.724C121.28 25.045 120.959 25.2975 120.59 25.4566C120.22 25.6157 119.816 25.676 119.416 25.6314C119.017 25.5868 118.636 25.439 118.311 25.2025L118.309 25.2011L113.619 21.823L113.618 21.8225L108.928 18.4551C108.927 18.4547 108.926 18.4542 108.926 18.4537C108.601 18.2155 108.344 17.8976 108.178 17.5309C108.012 17.1634 107.943 16.7593 107.979 16.3576C108.015 15.9559 108.154 15.5703 108.383 15.2382L107.971 14.9547L108.383 15.2382C108.612 14.906 108.922 14.6384 109.284 14.4615L109.294 14.4566L109.304 14.4513C110.166 13.9818 111.12 13.4942 111.903 13.1368L111.91 13.1337L111.916 13.1304C113.029 12.5825 113.993 11.7751 114.729 10.7763L115.337 9.97783L115.342 9.9705L115.347 9.96297C115.768 9.36604 116.303 8.85862 116.921 8.47016C117.54 8.0817 118.229 7.81995 118.949 7.70011C119.67 7.58027 120.407 7.60473 121.118 7.77207C121.828 7.93941 122.499 8.24628 123.09 8.67489L123.09 8.67491L123.095 8.67826C123.691 9.0999 124.197 9.63561 124.585 10.2544C124.973 10.8731 125.234 11.5626 125.353 12.2829C125.472 13.0032 125.447 13.74 125.28 14.4507C125.113 15.1598 124.807 15.8287 124.38 16.4191L123.779 17.2155Z" fill="white" stroke="#616161"/>
</svg>
